<?xml version="1.0" encoding="UTF-8" standalone="no"?>
<svg width="120px" height="120px" viewBox="0 0 120 120" version="1.1" xmlns="http://www.w3.org/2000/svg" xmlns:xlink="http://www.w3.org/1999/xlink">
    <!-- Generator: Sketch 43.2 (39069) - http://www.bohemiancoding.com/sketch -->
    <title>Banking</title>
    <desc>Created with Sketch.</desc>
    <defs></defs>
    <g id="Icons" stroke="none" stroke-width="1" fill="none" fill-rule="evenodd">
        <g id="Banking">
            <g id="Group-3-Copy-2">
                <g id="Group-8" transform="translate(25.000000, 23.000000)"></g>
                <g id="Group-69">
                    <rect id="Rectangle-21" fill="#FFFFFF" x="0" y="0" width="120" height="120"></rect>
                    <g id="Group-34" transform="translate(9.000000, 11.000000)">
                        <path d="M3,95.9989566 C3,95.4472481 3.4493764,95 3.99723237,95 L98.0027676,95 C98.5535239,95 99,95.4426603 99,95.9989566 L99,98 L3,98 L3,95.9989566 Z" id="Rectangle-14" fill="#FFBD3A"></path>
                        <rect id="Rectangle-14-Copy-3" fill="#9D6416" x="18" y="39" width="66" height="50"></rect>
                        <path d="M12,86.0048815 C12,84.897616 12.9019504,84 14.0085302,84 L21.9914698,84 C23.1007504,84 24,84.8938998 24,86.0048815 L24,89 L12,89 L12,86.0048815 Z" id="Rectangle-15" fill="#DE9129"></path>
                        <path d="M12,39 L24,39 L24,41.9951185 C24,43.102384 23.0980496,44 21.9914698,44 L14.0085302,44 C12.8992496,44 12,43.1061002 12,41.9951185 L12,39 Z" id="Rectangle-15-Copy-7" fill="#DE9129"></path>
                        <rect id="Rectangle-15" fill="#FFBD3A" x="14" y="44" width="8" height="40"></rect>
                        <rect id="Rectangle-15-Copy-5" fill="#FFBD3A" x="58" y="44" width="8" height="40"></rect>
                        <rect id="Rectangle-15-Copy-4" fill="#FFBD3A" x="36" y="44" width="8" height="40"></rect>
                        <rect id="Rectangle-15-Copy-6" fill="#FFBD3A" x="80" y="44" width="8" height="40"></rect>
                        <path d="M34,86.0048815 C34,84.897616 34.9019504,84 36.0085302,84 L43.9914698,84 C45.1007504,84 46,84.8938998 46,86.0048815 L46,89 L34,89 L34,86.0048815 Z" id="Rectangle-15-Copy" fill="#DE9129"></path>
                        <path d="M34,39 L46,39 L46,41.9951185 C46,43.102384 45.0980496,44 43.9914698,44 L36.0085302,44 C34.8992496,44 34,43.1061002 34,41.9951185 L34,39 Z" id="Rectangle-15-Copy-8" fill="#DE9129"></path>
                        <path d="M56,86.0048815 C56,84.897616 56.9019504,84 58.0085302,84 L65.9914698,84 C67.1007504,84 68,84.8938998 68,86.0048815 L68,89 L56,89 L56,86.0048815 Z" id="Rectangle-15-Copy-2" fill="#DE9129"></path>
                        <path d="M56,39 L68,39 L68,41.9951185 C68,43.102384 67.0980496,44 65.9914698,44 L58.0085302,44 C56.8992496,44 56,43.1061002 56,41.9951185 L56,39 Z" id="Rectangle-15-Copy-9" fill="#DE9129"></path>
                        <path d="M78,86.0048815 C78,84.897616 78.9019504,84 80.0085302,84 L87.9914698,84 C89.1007504,84 90,84.8938998 90,86.0048815 L90,89 L78,89 L78,86.0048815 Z" id="Rectangle-15-Copy-3" fill="#DE9129"></path>
                        <path d="M78,39 L90,39 L90,41.9951185 C90,43.102384 89.0980496,44 87.9914698,44 L80.0085302,44 C78.8992496,44 78,43.1061002 78,41.9951185 L78,39 Z" id="Rectangle-15-Copy-10" fill="#DE9129"></path>
                        <path d="M6,92.9989566 C6,92.4472481 6.44179603,92 6.99534901,92 L95.004651,92 C95.5543671,92 96,92.4426603 96,92.9989566 L96,95 L6,95 L6,92.9989566 Z" id="Rectangle-14-Copy" fill="#DE9129"></path>
                        <path d="M9,89.9989566 C9,89.4472481 9.45194292,89 10.0018775,89 L91.9981225,89 C92.5514442,89 93,89.4426603 93,89.9989566 L93,92 L9,92 L9,89.9989566 Z" id="Rectangle-14-Copy-2" fill="#FFBD3A"></path>
                        <rect id="Rectangle-14-Copy-3" fill="#FFBD3A" x="9" y="33" width="84" height="6"></rect>
                        <path d="M3,26.0687875 L51,1 L99,26.0687875 L96.6270568,32.0652258 C96.422759,32.5814874 95.8128223,33 95.2561061,33 L6.74389386,33 C6.19103655,33 5.57949306,32.5871782 5.37294322,32.0652258 L3,26.0687875 Z" id="Rectangle-70" fill="#DE9129"></path>
                        <g id="Group-33" transform="translate(0.500000, 0.000000)" fill="#FFBD39">
                            <polygon id="Rectangle-53" transform="translate(26.178534, 13.800289) rotate(-26.000000) translate(-26.178534, -13.800289) " points="-1.54726505 12.4304255 53.9043333 12.4304255 53.9043333 15.1701516 -1.54726505 15.1701516"></polygon>
                            <polygon id="Rectangle-53-Copy" transform="translate(74.821466, 13.783650) scale(-1, 1) rotate(-26.000000) translate(-74.821466, -13.783650) " points="47.0956667 12.4137872 102.547265 12.4137872 102.547265 15.1535132 47.0956667 15.1535132"></polygon>
                        </g>
                        <polygon id="Rectangle-70" fill="#FFBD39" points="7 29 51 8 95 29"></polygon>
                        <path d="M35.432,26.961 L35.432,17.133 C36.004,17.016 36.992,16.925 37.967,16.925 C39.176,16.925 40.034,17.081 40.723,17.562 C41.321,17.965 41.698,18.628 41.698,19.447 C41.698,20.357 41.165,21.202 40.099,21.605 L40.099,21.657 C41.217,21.943 42.049,22.827 42.049,24.101 C42.049,24.881 41.724,25.635 41.139,26.155 C40.463,26.766 39.345,27.091 37.564,27.091 C36.615,27.091 35.9,27.026 35.432,26.961 Z M37.343,18.42 L37.343,21.072 L38.045,21.072 C39.137,21.072 39.787,20.487 39.787,19.668 C39.787,18.68 39.046,18.355 38.188,18.355 C37.772,18.355 37.512,18.381 37.343,18.42 Z M38.058,22.476 L37.343,22.476 L37.343,25.596 C37.538,25.635 37.772,25.648 38.11,25.648 C39.15,25.648 40.034,25.18 40.034,24.049 C40.034,22.892 39.046,22.476 38.058,22.476 Z M45.663,17.003 L48.081,17.003 L50.876,27 L48.861,27 L48.146,24.361 L45.468,24.361 L44.779,27 L42.829,27 L45.663,17.003 Z M46.339,20.617 L45.741,22.905 L47.873,22.905 L47.275,20.63 C47.119,20.006 46.95,19.2 46.82,18.589 L46.781,18.589 C46.651,19.213 46.482,20.032 46.339,20.617 Z M57.714,17.003 L57.714,20.006 C57.714,21.631 57.766,23.048 57.883,24.322 L57.857,24.322 C57.454,23.282 56.895,22.06 56.362,21.059 L54.256,17.003 L52.176,17.003 L52.176,27 L53.918,27 L53.918,23.932 C53.918,22.151 53.879,20.747 53.801,19.512 L53.853,19.512 C54.269,20.604 54.854,21.839 55.387,22.866 L57.532,27 L59.456,27 L59.456,17.003 L57.714,17.003 Z M68.439,17.003 L66.151,17.003 L64.006,20.383 C63.798,20.76 63.577,21.137 63.369,21.527 L63.33,21.527 L63.33,17.003 L61.419,17.003 L61.419,27 L63.33,27 L63.33,23.581 L64.071,22.58 L66.385,27 L68.582,27 L65.423,21.28 L68.439,17.003 Z" id="BANK" fill="#BC6D02"></path>
                    </g>
                </g>
            </g>
        </g>
    </g>
</svg>