<?xml version="1.0" encoding="UTF-8" standalone="no"?>
<svg width="121px" height="121px" viewBox="0 0 121 121" version="1.1" xmlns="http://www.w3.org/2000/svg" xmlns:xlink="http://www.w3.org/1999/xlink">
    <!-- Generator: Sketch 43.2 (39069) - http://www.bohemiancoding.com/sketch -->
    <title>Send</title>
    <desc>Created with Sketch.</desc>
    <defs>
        <circle id="path-1" cx="60.5" cy="60.5" r="60.5"></circle>
    </defs>
    <g id="Icons" stroke="none" stroke-width="1" fill="none" fill-rule="evenodd">
        <g id="Send">
            <g id="Group-3">
                <g id="Group-13">
                    <g id="Group-69">
                        <g id="Group-6-Copy">
                            <g id="Rectangle-60">
                                <rect id="Rectangle-21" fill="#FFFFFF" x="0" y="0" width="120" height="120"></rect>
                                <mask id="mask-2" fill="white">
                                    <use xlink:href="#path-1"></use>
                                </mask>
                                <use id="Mask" fill="#FFFFFF" xlink:href="#path-1"></use>
                            </g>
                        </g>
                    </g>
                    <g id="Group-6" transform="translate(1.000000, 18.000000)">
                        <g id="Group" transform="translate(59.059500, 46.980139) rotate(-6.000000) translate(-59.059500, -46.980139) translate(4.059500, 6.480139)">
                            <polygon id="Path-32" fill="#14E3D4" points="0.528125 25.859304 31.2234375 42.4456676 109.790683 0.38180491"></polygon>
                            <polygon id="Path-32" fill="#15B2B6" points="33.3304237 80.459747 31.2234375 42.4456676 109.790683 0.38180491"></polygon>
                            <polygon id="Path-32" fill="#008F98" points="33.3304237 80.459747 44.349493 49.3794038 109.790683 0.38180491"></polygon>
                            <polygon id="Path-32" fill="#14E3D4" points="88.2992187 73.9986328 44.364825 49.3575765 109.790683 0.38180491"></polygon>
                        </g>
                        <path d="M72.9283507,49.913349 L70.5253406,49.2365006 C69.471911,50.6120629 69.1583235,51.8458417 69.5834967,52.9440883 C70.006791,54.0545679 71.0979307,54.9739456 72.8579563,55.6950119 L71.4364253,57.3315097 L72.9808494,57.8350009 L74.405096,56.1809266 C75.3516231,56.4092606 76.2928405,56.5316691 77.2289564,56.5470621 C78.1654149,56.5601282 79.0658666,56.4598873 79.930402,56.2460207 C80.7953642,56.0294111 81.6044765,55.7019692 82.3576949,55.2642181 C83.1112488,54.8244381 83.7739882,54.2612585 84.3456814,53.5763709 C84.882373,52.933643 85.178173,52.3368306 85.2328585,51.7873034 C85.287235,51.2398472 85.2063944,50.7519087 84.9903453,50.3233373 C84.774002,49.8966565 84.483223,49.5320934 84.118085,49.2290592 C83.7527664,48.9271463 83.4099397,48.6941881 83.0896899,48.5295741 L81.6652799,47.7726698 L85.9380197,42.8426266 C87.4905784,43.4554815 87.8815324,44.4790111 87.1107264,45.9154234 L89.5298071,46.4831565 C90.1758077,45.1773472 90.3333442,44.0816211 90.0021642,43.1970887 C89.6696998,42.320882 88.7895298,41.6574437 87.3622663,41.2023015 L88.52598,39.8631578 L86.9519166,39.5505967 L85.8077575,40.8557345 C84.9538345,40.7247026 84.0774084,40.6888522 83.1786419,40.7470044 C82.2801965,40.8030312 81.4111097,40.9512924 80.571418,41.1914519 C79.732131,41.4290285 78.9451592,41.7520698 78.2104162,42.1610581 C77.4759944,42.5680901 76.8507273,43.0562383 76.3343554,43.6271295 C75.8294585,44.1855195 75.5128356,44.6895435 75.3843281,45.1401056 C75.2556214,45.5920366 75.3090073,46.0171316 75.5444167,46.4157976 C75.7795326,46.8163576 76.1717699,47.2119659 76.7211209,47.6026968 C77.2701525,47.9954028 77.9702683,48.4097774 78.8214524,48.8459893 L74.2274801,54.1197993 C73.215791,53.6465082 72.5635455,53.043187 72.2703467,52.3125022 C71.9763234,51.5871739 72.1954677,50.78858 72.9283507,49.913349 Z M75.777236,54.5887966 L80.1368201,49.5395656 C80.5540437,49.7828988 80.9341287,50.0294537 81.2770817,50.2792792 C81.6199127,50.5298542 81.8704339,50.793937 82.0286487,51.0715857 C82.186736,51.3500506 82.2467117,51.648876 82.2085947,51.9679852 C82.1703734,52.2877961 81.9825757,52.6471952 81.6452743,53.0457316 C81.2730798,53.4855959 80.8609265,53.8412957 80.4088919,54.112223 C79.9569767,54.3824303 79.4764666,54.574898 78.9673663,54.6894695 C78.4584111,54.803104 77.936762,54.8478762 77.4023698,54.8239733 C76.8680781,54.7993798 76.32639,54.720881 75.777236,54.5887966 Z M84.4208979,42.4390177 L80.3643337,47.0782864 C79.9720095,46.866643 79.629003,46.6519167 79.3352981,46.43415 C79.041492,46.2170116 78.8198431,45.9906222 78.6703426,45.7550036 C78.5207385,45.520052 78.4719026,45.2631217 78.5238482,44.9841328 C78.5757096,44.7057149 78.7512499,44.3987162 79.0505374,44.062748 C79.7066677,43.3264304 80.5227471,42.8402679 81.4991966,42.6014636 C82.476175,42.3592662 83.4501659,42.3045127 84.4208979,42.4390177 Z" id="$" fill="#009BA5"></path>
                    </g>
                </g>
            </g>
        </g>
    </g>
</svg>