<?xml version="1.0" encoding="UTF-8" standalone="no"?>
<svg width="120px" height="120px" viewBox="0 0 120 120" version="1.1" xmlns="http://www.w3.org/2000/svg" xmlns:xlink="http://www.w3.org/1999/xlink">
    <!-- Generator: Sketch 43.2 (39069) - http://www.bohemiancoding.com/sketch -->
    <title>SetOrder</title>
    <desc>Created with Sketch.</desc>
    <defs></defs>
    <g id="Icons" stroke="none" stroke-width="1" fill="none" fill-rule="evenodd">
        <g id="SetOrder">
            <rect id="Rectangle-21" fill="#FFFFFF" x="0" y="0" width="120" height="120"></rect>
            <g id="Group-19" transform="translate(21.000000, 8.000000)">
                <rect id="Rectangle-9" fill="#DE9129" x="0" y="16" width="78" height="83" rx="4"></rect>
                <rect id="Rectangle-9" fill="#FFBD3A" x="0" y="12" width="78" height="83" rx="4"></rect>
                <polygon id="Rectangle-9" fill="#FFFFFF" points="4 16 74 16 74 70.9967448 54.061849 91 4 91"></polygon>
                <rect id="Rectangle-12" fill="#B5CACF" x="30" y="37" width="36" height="3"></rect>
                <rect id="Rectangle-12-Copy" fill="#B5CACF" x="30" y="52" width="36" height="3"></rect>
                <rect id="Rectangle-12-Copy-2" fill="#B5CACF" x="30" y="68" width="16" height="3"></rect>
                <g id="Group-17" transform="translate(12.000000, 30.000000)" fill="#00C8BE">
                    <path d="M3.67176958,6.82232101 L3.67176958,3.570067 L0.766109199,3.570067 L0.766109199,8.27159637 L0.766109199,9.72087174 L10.9359205,9.72087174 L10.9359205,6.82232101 L3.67176958,6.82232101 Z" id="Combined-Shape" transform="translate(5.851015, 6.645469) rotate(-45.000000) translate(-5.851015, -6.645469) "></path>
                    <path d="M3.67176958,22.76435 L3.67176958,19.512096 L0.766109199,19.512096 L0.766109199,24.2136254 L0.766109199,25.6629007 L10.9359205,25.6629007 L10.9359205,22.76435 L3.67176958,22.76435 Z" id="Combined-Shape-Copy" transform="translate(5.851015, 22.587498) rotate(-45.000000) translate(-5.851015, -22.587498) "></path>
                    <path d="M3.67176958,38.706379 L3.67176958,35.454125 L0.766109199,35.454125 L0.766109199,40.1556543 L0.766109199,41.6049297 L10.9359205,41.6049297 L10.9359205,38.706379 L3.67176958,38.706379 Z" id="Combined-Shape-Copy-2" transform="translate(5.851015, 38.529527) rotate(-45.000000) translate(-5.851015, -38.529527) "></path>
                </g>
                <rect id="Rectangle-11" fill="#95ABB2" x="24" y="10" width="30" height="6"></rect>
                <rect id="Rectangle-11" fill="#95ABB2" x="32" y="0" width="14" height="20" rx="7"></rect>
                <rect id="Rectangle-11" fill="#FFFFFF" x="36" y="4" width="6" height="6" rx="3"></rect>
                <rect id="Rectangle-11-Copy" fill="#697E85" x="24" y="16" width="30" height="4"></rect>
                <polygon id="Rectangle-10" fill="#DFE9E9" points="54 71 74 71 54 91"></polygon>
            </g>
        </g>
    </g>
</svg>