<?xml version="1.0" encoding="UTF-8"?>
<svg width="186px" height="32px" viewBox="0 0 186 32" version="1.1" xmlns="http://www.w3.org/2000/svg" xmlns:xlink="http://www.w3.org/1999/xlink">
    <!-- Generator: Sketch 45.2 (43514) - http://www.bohemiancoding.com/sketch -->
    <title>Group 12 Copy</title>
    <desc>Created with Sketch.</desc>
    <defs></defs>
    <g id="LOGO" stroke="none" stroke-width="1" fill="none" fill-rule="evenodd">
        <g id="LOGO-Proposal-Copy" transform="translate(-658.000000, -65.000000)" fill="#FFFFFF">
            <g id="Group-73" transform="translate(-750.000000, 0.000000)">
                <g id="Group-12-Copy" transform="translate(1408.000000, 65.000000)">
                    <g id="Group-11">
                        <g id="Group-38-Copy">
                            <path d="M14.5580858,17.527115 L8.08008591,17.527115 C5.46413281,17.527115 3.34348383,15.4138213 3.34348383,12.8069414 C3.34348383,10.2000616 5.46413281,8.0867679 8.08008591,8.0867679 L14.5580858,8.0867679 C15.4813634,8.0867679 16.2298277,7.34089954 16.2298277,6.4208243 C16.2298277,5.50074905 15.4813634,4.75488069 14.5580858,4.75488069 L8.08008591,4.75488069 C3.61757769,4.75488069 0,8.35991108 0,12.8069414 C0,17.2539718 3.61757769,20.8590022 8.08008591,20.8590022 L14.5580858,20.8590022 C15.4813634,20.8590022 16.2298277,20.1131338 16.2298277,19.1930586 C16.2298277,18.2729833 15.4813634,17.527115 14.5580858,17.527115 Z" id="Rectangle-30" fill-rule="nonzero"></path>
                            <g id="Group-24" transform="translate(9.229408, 0.000000)">
                                <rect id="Rectangle-9" x="0" y="5.58785249" width="8.18456978" height="2.4989154" rx="1.2494577"></rect>
                                <rect id="Rectangle-26" transform="translate(4.387646, 4.303022) rotate(-45.000000) translate(-4.387646, -4.303022) " x="3.13383963" y="-0.53073906" width="2.50761287" height="9.66752211" rx="1.25380643"></rect>
                            </g>
                            <path d="M20.9664298,23.9132321 L14.4884299,23.9132321 C11.8724768,23.9132321 9.75182782,21.7999384 9.75182782,19.1930586 C9.75182782,16.5861787 11.8724768,14.472885 14.4884299,14.472885 L20.7226341,14.472885 C21.6459117,14.472885 22.394376,13.7270167 22.394376,12.8069414 C22.394376,11.8868662 21.6459117,11.1409978 20.7226341,11.1409978 L14.4884299,11.1409978 C10.0259217,11.1409978 6.408344,14.7460282 6.408344,19.1930586 C6.408344,23.6400889 10.0259217,27.2451193 14.4884299,27.2451193 L20.9664298,27.2451193 C21.8897074,27.2451193 22.6381717,26.4992509 22.6381717,25.5791757 C22.6381717,24.6591005 21.8897074,23.9132321 20.9664298,23.9132321 Z" id="Rectangle-30-Copy" fill-rule="nonzero" transform="translate(14.523258, 19.193059) scale(-1, 1) translate(-14.523258, -19.193059) "></path>
                            <g id="Group-24-Copy" transform="translate(9.055269, 27.696312) scale(-1, -1) translate(-9.055269, -27.696312) translate(4.701774, 23.392625)">
                                <rect id="Rectangle-9" x="0" y="5.58785249" width="8.18456978" height="2.4989154" rx="1.2494577"></rect>
                                <rect id="Rectangle-26" transform="translate(4.387646, 4.303022) rotate(-45.000000) translate(-4.387646, -4.303022) " x="3.13383963" y="-0.53073906" width="2.50761287" height="9.66752211" rx="1.25380643"></rect>
                            </g>
                        </g>
                        <g id="Group-71-Copy-2" transform="translate(31.065608, 9.000000)">
                            <path d="M8.64959987,4.82689534 L10.2628852,4.82689534 L10.2628852,4.82689533 C10.444177,4.82689533 10.591143,4.67992934 10.591143,4.4986376 C10.591143,4.47631372 10.5888657,4.45404807 10.5843465,4.4321864 C10.0131267,1.66887915 8.31920579,0.287225517 5.50258384,0.287225517 C0.411258864,0.287225517 0.158656631,4.14565997 0.411258864,5.35526527 C1.23478126,9.29876583 8.95808622,7.8427983 8.77702756,10.8491745 C8.61312496,13.5706844 4.03892714,13.4503927 2.93859858,12.1287867 C2.54214861,11.6526101 2.30783122,11.1484539 2.23564643,10.616318 L2.23564643,10.616318 C2.21356938,10.4535692 2.07460722,10.3321846 1.91036781,10.3321846 L0.328261446,10.3321846 L0.328261446,10.3321846 C0.146969706,10.3321846 3.71321592e-06,10.4791506 3.71321592e-06,10.6604424 C3.71321592e-06,10.6821933 0.00216558776,10.7038904 0.00645745883,10.7252138 C0.582065293,13.5850087 2.42220633,15.0149062 5.52688056,15.0149062 C10.4448408,15.0149062 11.4342192,11.4586894 10.9913165,9.80293316 C9.93452959,5.85221991 3.3202094,7.41681359 2.68745231,4.85117807 C2.16203012,2.72075256 5.05121017,1.7014746 6.65703875,2.39060747 C7.63761337,2.8114159 8.1932823,3.5281066 8.32404556,4.54067956 L8.32404556,4.54067956 C8.34518306,4.70435904 8.48456119,4.82689534 8.64959987,4.82689534 Z" id="Path-10"></path>
                            <path d="M67.7207493,4.82689534 L69.3340347,4.82689534 L69.3340347,4.82689533 C69.5153264,4.82689533 69.6622924,4.67992934 69.6622924,4.4986376 C69.6622924,4.47631372 69.6600151,4.45404807 69.655496,4.4321864 C69.0842761,1.66887915 67.3903552,0.287225517 64.5737333,0.287225517 C59.4824083,0.287225517 59.2298061,4.14565997 59.4824083,5.35526527 C60.3059307,9.29876583 68.0292356,7.8427983 67.848177,10.8491745 C67.6842744,13.5706844 63.1100766,13.4503927 62.009748,12.1287867 C61.613298,11.6526101 61.3789807,11.1484539 61.3067959,10.616318 L61.3067959,10.616318 C61.2847188,10.4535692 61.1457566,10.3321846 60.9815172,10.3321846 L59.3994109,10.3321846 L59.3994109,10.3321846 C59.2181191,10.3321846 59.0711531,10.4791506 59.0711531,10.6604424 C59.0711531,10.6821933 59.073315,10.7038904 59.0776069,10.7252138 C59.6532147,13.5850087 61.4933558,15.0149062 64.59803,15.0149062 C69.5159903,15.0149062 70.5053686,11.4586894 70.0624659,9.80293316 C69.005679,5.85221991 62.3913588,7.41681359 61.7586017,4.85117807 C61.2331796,2.72075256 64.1223596,1.7014746 65.7281882,2.39060747 C66.7087628,2.8114159 67.2644317,3.5281066 67.395195,4.54067956 L67.395195,4.54067956 C67.4163325,4.70435904 67.5557106,4.82689534 67.7207493,4.82689534 Z" id="Path-10-Copy"></path>
                            <g id="Group-61" transform="translate(13.055757, 4.513544)">
                                <path d="M0.328257734,0.2461933 L1.97086925,0.2461933 L1.97086925,0.2461933 C2.15216099,0.2461933 2.29912699,0.393159294 2.29912699,0.574451034 L2.29912699,9.92979644 L2.29912699,9.92979644 C2.29912699,10.1110882 2.15216099,10.2580542 1.97086925,10.2580542 L0.328257734,10.2580542 L0.328257734,10.2580542 C0.146965993,10.2580542 2.22018349e-17,10.1110882 0,9.92979644 L0,0.574451034 L1.11022302e-16,0.574451034 C8.88204675e-17,0.393159294 0.146965993,0.2461933 0.328257734,0.2461933 Z" id="Rectangle-37"></path>
                                <g id="Group-63" transform="translate(7.882721, 0.000000)">
                                    <path d="M4.59825397,3.48773842 L6.89738096,3.28257734 L6.89738096,9.92979644 L6.89738096,9.92979644 C6.89738096,10.1110882 6.75041496,10.2580542 6.56912322,10.2580542 L4.92651171,10.2580542 L4.92651171,10.2580542 C4.74521997,10.2580542 4.59825397,10.1110882 4.59825397,9.92979644 L4.59825397,3.48773842 Z" id="Rectangle-37-Copy"></path>
                                    <path d="M0.00662622424,3.48773842 C0.00223039856,3.41988847 0,3.35148082 0,3.28257734 C0,1.46965993 1.54403132,-3.10862447e-15 3.44869048,-3.10862447e-15 C5.35334964,-3.10862447e-15 6.89738096,1.46965993 6.89738096,3.28257734 C6.89738096,3.35148082 6.89515056,3.41988847 6.89075473,3.48773842 L4.5978348,3.48773842 C4.5759792,2.41893105 3.70223189,1.55922423 2.6275737,1.55922423 C1.55291551,1.55922423 0.6791682,2.41893105 0.657312596,3.48773842 L0.00662622424,3.48773842 Z" id="Combined-Shape-Copy-4"></path>
                                </g>
                                <g id="Group-63-Copy" transform="translate(1.642234, 0.000000)">
                                    <path d="M4.59825397,3.48773842 L6.89738096,3.28257734 L6.89738096,9.92979644 L6.89738096,9.92979644 C6.89738096,10.1110882 6.75041496,10.2580542 6.56912322,10.2580542 L4.92651171,10.2580542 L4.92651171,10.2580542 C4.74521997,10.2580542 4.59825397,10.1110882 4.59825397,9.92979644 L4.59825397,3.48773842 Z" id="Rectangle-37-Copy"></path>
                                    <path d="M0.00662622424,3.48773842 C0.00223039856,3.41988847 0,3.35148082 0,3.28257734 C0,1.46965993 1.54403132,-3.10862447e-15 3.44869048,-3.10862447e-15 C5.35334964,-3.10862447e-15 6.89738096,1.46965993 6.89738096,3.28257734 C6.89738096,3.35148082 6.89515056,3.41988847 6.89075473,3.48773842 L4.5978348,3.48773842 C4.5759792,2.41893105 3.70223189,1.55922423 2.6275737,1.55922423 C1.55291551,1.55922423 0.6791682,2.41893105 0.657312596,3.48773842 L0.00662622424,3.48773842 Z" id="Combined-Shape-Copy-4"></path>
                                </g>
                            </g>
                            <g id="Group-62" transform="translate(29.806539, 4.513544)">
                                <path d="M5.02934028,10.5042475 C2.04643315,10.5042475 1.74892506e-16,8.23485602 0,5.25212374 C0,1.98216594 2.16960066,3.65730578e-16 5.02934028,0 C7.93013574,0 10.0586806,2.51558476 10.0586806,5.25212374 C10.0586806,7.98866272 7.8890799,10.5042475 5.02934028,10.5042475 Z M5.52201035,8.53470107 C7.35457819,8.53470107 8.74489371,6.9624606 8.74489371,5.25212374 C8.74489371,3.54178688 7.38088744,1.9695464 5.52201035,1.9695464 C3.68944251,1.9695464 2.29912699,3.20840012 2.29912699,5.25212374 C2.29912699,7.11633141 3.61051476,8.53470107 5.52201035,8.53470107 Z" id="Combined-Shape"></path>
                                <path d="M9.07315145,0.2461933 L10.715763,0.2461933 L10.715763,0.2461933 C10.8970547,0.2461933 11.0440207,0.393159294 11.0440207,0.574451034 L11.0440207,9.92979644 L11.0440207,9.92979644 C11.0440207,10.1110882 10.8970547,10.2580542 10.715763,10.2580542 L9.07315145,10.2580542 L9.07315145,10.2580542 C8.89185971,10.2580542 8.74489371,10.1110882 8.74489371,9.92979644 L8.74489371,0.574451034 L8.74489371,0.574451034 C8.74489371,0.393159294 8.89185971,0.2461933 9.07315145,0.2461933 Z" id="Rectangle-37"></path>
                            </g>
                            <g id="Group-62-Copy" transform="translate(95.446623, 0.000000)">
                                <path d="M5.02934028,15.0177913 C2.04643315,15.0177913 1.74892506e-16,12.7483999 0,9.76566757 C0,6.49570978 2.16960066,4.51354384 5.02934028,4.51354384 C7.93013574,4.51354384 10.0586806,7.0291286 10.0586806,9.76566757 C10.0586806,12.5022066 7.8890799,15.0177913 5.02934028,15.0177913 Z M5.52201035,13.0482449 C7.35457819,13.0482449 8.74489371,11.4760044 8.74489371,9.76566757 C8.74489371,8.05533071 7.38088744,6.48309024 5.52201035,6.48309024 C3.68944251,6.48309024 2.29912699,7.72194395 2.29912699,9.76566757 C2.29912699,11.6298752 3.61051476,13.0482449 5.52201035,13.0482449 Z" id="Combined-Shape"></path>
                                <path d="M9.07315145,3.35835011e-16 L10.715763,3.35835011e-16 L10.715763,3.33066907e-16 C10.8970547,2.9976496e-16 11.0440207,0.146965993 11.0440207,0.328257734 L11.0440207,14.4433403 L11.0440207,14.4433403 C11.0440207,14.624632 10.8970547,14.771598 10.715763,14.771598 L9.07315145,14.771598 L9.07315145,14.771598 C8.89185971,14.771598 8.74489371,14.624632 8.74489371,14.4433403 L8.74489371,0.328257734 L8.74489371,0.328257734 C8.74489371,0.146965993 8.89185971,6.99435762e-16 9.07315145,6.66133815e-16 Z" id="Rectangle-37"></path>
                            </g>
                            <g id="Group-64" transform="translate(43.149687, 4.595608)">
                                <path d="M0.328257734,0.12309665 L1.97086925,0.12309665 L1.97086925,0.12309665 C2.15216099,0.12309665 2.29912699,0.270062643 2.29912699,0.451354384 L2.29912699,9.80669979 L2.29912699,9.80669979 C2.29912699,9.98799153 2.15216099,10.1349575 1.97086925,10.1349575 L0.328257734,10.1349575 L0.328257734,10.1349575 C0.146965993,10.1349575 2.22018349e-17,9.98799153 0,9.80669979 L0,0.451354384 L-5.55111512e-17,0.451354384 C-7.77129862e-17,0.270062643 0.146965993,0.12309665 0.328257734,0.12309665 Z" id="Rectangle-37"></path>
                                <path d="M5.91204082,0.341274829 L5.91204082,1.76877973 L5.91204082,1.76877973 C5.91204082,1.94522625 5.77255497,2.09010774 5.59623546,2.09680119 C3.67021629,2.16991686 2.57118013,3.12594921 2.29912699,4.96489822 C2.0537542,4.02853021 1.55711309,3.59080913 2.0651482,2.92926986 C2.8356874,1.11184525 3.99974085,0.140117449 5.55730855,0.0140864453 L5.55730855,0.0140864414 C5.73800971,-0.000535040731 5.89634999,0.134099137 5.91097147,0.314800294 C5.91168408,0.323607151 5.91204082,0.332439189 5.91204082,0.341274829 Z" id="Path-11"></path>
                            </g>
                            <g id="Group-66" transform="translate(50.703961, 1.969546)">
                                <rect id="Rectangle-42" x="1.97068027" y="0" width="2.29912699" height="12.8020516" rx="0.328257734"></rect>
                                <rect id="Rectangle-46" x="0" y="2.62606187" width="6.56893425" height="1.9695464" rx="0.328257734"></rect>
                            </g>
                            <g id="Group-67" transform="translate(84.279435, 4.513544)">
                                <path d="M0.328257734,0.2461933 L1.97086925,0.2461933 L1.97086925,0.2461933 C2.15216099,0.2461933 2.29912699,0.393159294 2.29912699,0.574451034 L2.29912699,9.92979644 L2.29912699,9.92979644 C2.29912699,10.1110882 2.15216099,10.2580542 1.97086925,10.2580542 L0.328257734,10.2580542 L0.328257734,10.2580542 C0.146965993,10.2580542 2.22018349e-17,10.1110882 0,9.92979644 L0,0.574451034 L1.11022302e-16,0.574451034 C8.88204675e-17,0.393159294 0.146965993,0.2461933 0.328257734,0.2461933 Z" id="Rectangle-37"></path>
                                <g id="Group-63-Copy" transform="translate(1.519066, 0.000000)">
                                    <path d="M5.70676163,3.36464177 L8.00588861,3.9390928 L8.00588861,9.92979644 L8.00588861,9.92979644 C8.00588861,10.1110882 7.85892262,10.2580542 7.67763088,10.2580542 L6.03501936,10.2580542 L6.03501936,10.2580542 C5.85372762,10.2580542 5.70676163,10.1110882 5.70676163,9.92979644 L5.70676163,3.36464177 Z" id="Rectangle-37-Copy"></path>
                                    <path d="M-2.64060579e-11,2.70569995 C0.539506651,1.1343094 2.08184074,-3.10862447e-15 3.90030471,-3.10862447e-15 C6.16775609,-3.10862447e-15 8.00588861,1.76359192 8.00588861,3.9390928 L5.70676163,3.9390928 C5.70676163,2.57940475 4.60388211,1.4771598 3.24341128,1.4771598 C1.88294046,1.4771598 0.780060942,2.57940475 0.780060942,3.9390928 L0,3.9390928 L0,2.70569995 Z" id="Combined-Shape-Copy-4"></path>
                                </g>
                            </g>
                            <path d="M74.2254301,10.3939897 C74.1932304,10.3939897 74.1612059,10.3987274 74.1303854,10.4080505 C73.9568593,10.4605423 73.8587415,10.6437659 73.9112332,10.817292 L73.9112332,10.817292 C74.0879616,11.4015174 74.3843083,11.9167668 74.8002734,12.3630402 C75.8553496,13.4949923 77.809905,13.7691695 79.2148835,12.712951 C79.666598,12.3733663 79.9963622,11.9911073 80.2041759,11.566174 C80.259257,11.4535454 80.3736829,11.3821288 80.4990588,11.3821288 L80.4990588,11.3821288 L81.9074506,11.3821288 C81.9529769,11.3821288 81.9980055,11.3915988 82.0396751,11.4099372 C82.2056087,11.4829627 82.2809255,11.6766774 82.2079,11.842611 L82.2079,11.842611 C81.8562375,12.6416819 81.2475226,13.3595882 80.3817551,13.9963298 C78.7951033,15.1632565 75.8233264,15.720324 73.4850681,13.5628468 C71.1468098,11.4053697 71.2668901,8.23384781 73.3332337,6.11291497 C75.3995772,3.99198213 79.1171754,4.10468047 80.9993692,6.03391593 C82.1741726,7.23808128 82.7150327,8.58880919 82.6219495,10.0860997 C82.6111915,10.2591483 82.4677071,10.3939897 82.2943243,10.3939897 L82.2943243,10.3939897 L74.2254301,10.3939897 Z M74.3885346,8.71659745 L80.0285011,8.71659745 L80.0285011,8.71659746 C80.2097928,8.71659746 80.3567588,8.56963146 80.3567588,8.38833971 C80.3567588,8.34121404 80.3466119,8.29464083 80.3270079,8.25178629 C80.1228641,7.80552661 79.8551832,7.42605644 79.523965,7.11337578 C78.3865061,6.03957773 76.4887197,5.73595151 74.944515,7.05274908 C74.5911954,7.35403709 74.305511,7.75563443 74.0874618,8.25754111 L74.0874618,8.25754111 C74.0152237,8.42381905 74.0914581,8.61717449 74.257736,8.68941257 C74.2990112,8.70734422 74.3435326,8.71659745 74.3885346,8.71659745 Z" id="Combined-Shape"></path>
                        </g>
                    </g>
                    <path d="M147.495672,14.432 L148.251672,14.432 L148.251672,17.984 L148.275672,17.984 C148.355672,17.7599989 148.469671,17.5640008 148.617672,17.396 C148.765673,17.2279992 148.935671,17.0860006 149.127672,16.97 C149.319673,16.8539994 149.527671,16.7680003 149.751672,16.712 C149.975673,16.6559997 150.199671,16.628 150.423672,16.628 C150.895674,16.628 151.30567,16.7159991 151.653672,16.892 C152.001674,17.0680009 152.291671,17.3059985 152.523672,17.606 C152.755673,17.9060015 152.927671,18.253998 153.039672,18.65 C153.151673,19.046002 153.207672,19.4639978 153.207672,19.904 C153.207672,20.3440022 153.151673,20.761998 153.039672,21.158 C152.927671,21.554002 152.755673,21.9019985 152.523672,22.202 C152.291671,22.5020015 152.001674,22.7379991 151.653672,22.91 C151.30567,23.0820009 150.895674,23.168 150.423672,23.168 C149.919669,23.168 149.469674,23.0520012 149.073672,22.82 C148.67767,22.5879988 148.391673,22.2560022 148.215672,21.824 L148.191672,21.824 L148.191672,23 L147.495672,23 L147.495672,14.432 Z M152.451672,19.904 C152.451672,19.5839984 152.413672,19.2660016 152.337672,18.95 C152.261672,18.6339984 152.141673,18.3520012 151.977672,18.104 C151.813671,17.8559988 151.603673,17.6540008 151.347672,17.498 C151.091671,17.3419992 150.783674,17.264 150.423672,17.264 C150.02367,17.264 149.685673,17.3419992 149.409672,17.498 C149.133671,17.6540008 148.909673,17.8559988 148.737672,18.104 C148.565671,18.3520012 148.441672,18.6339984 148.365672,18.95 C148.289672,19.2660016 148.251672,19.5839984 148.251672,19.904 C148.251672,20.2240016 148.289672,20.5419984 148.365672,20.858 C148.441672,21.1740016 148.565671,21.4559988 148.737672,21.704 C148.909673,21.9520012 149.133671,22.1539992 149.409672,22.31 C149.685673,22.4660008 150.02367,22.544 150.423672,22.544 C150.783674,22.544 151.091671,22.4660008 151.347672,22.31 C151.603673,22.1539992 151.813671,21.9520012 151.977672,21.704 C152.141673,21.4559988 152.261672,21.1740016 152.337672,20.858 C152.413672,20.5419984 152.451672,20.2240016 152.451672,19.904 Z M153.687672,16.808 L156.159672,22.976 L155.895672,23.672 C155.831672,23.8160007 155.771672,23.9479994 155.715672,24.068 C155.659672,24.1880006 155.591672,24.2899996 155.511672,24.374 C155.431672,24.4580004 155.337672,24.5239998 155.229672,24.572 C155.121671,24.6200002 154.983673,24.644 154.815672,24.644 C154.727672,24.644 154.641672,24.6380001 154.557672,24.626 C154.473672,24.6139999 154.387672,24.6000001 154.299672,24.584 L154.299672,25.22 C154.363672,25.2440001 154.437672,25.258 154.521672,25.262 C154.605672,25.266 154.723671,25.272 154.875672,25.28 C155.115673,25.28 155.313671,25.2580002 155.469672,25.214 C155.625673,25.1699998 155.761671,25.0980005 155.877672,24.998 C155.993673,24.8979995 156.099671,24.7620009 156.195672,24.59 C156.291672,24.4179991 156.395671,24.2000013 156.507672,23.936 L159.195672,16.808 L158.439672,16.808 L156.531672,22.088 L154.491672,16.808 L153.687672,16.808 Z M163.419672,14.432 L166.383672,14.432 C167.687678,14.4640002 168.669669,14.8299965 169.329672,15.53 C169.989675,16.2300035 170.319672,17.2919929 170.319672,18.716 C170.319672,20.1400071 169.989675,21.2019965 169.329672,21.902 C168.669669,22.6020035 167.687678,22.9679998 166.383672,23 L163.419672,23 L163.419672,14.432 Z M164.235672,22.304 L165.975672,22.304 C166.591675,22.304 167.12167,22.2380007 167.565672,22.106 C168.009674,21.9739993 168.375671,21.7640014 168.663672,21.476 C168.951673,21.1879986 169.163671,20.8160023 169.299672,20.36 C169.435673,19.9039977 169.503672,19.3560032 169.503672,18.716 C169.503672,18.0759968 169.435673,17.5280023 169.299672,17.072 C169.163671,16.6159977 168.951673,16.2440014 168.663672,15.956 C168.375671,15.6679986 168.009674,15.4580007 167.565672,15.326 C167.12167,15.1939993 166.591675,15.128 165.975672,15.128 L164.235672,15.128 L164.235672,22.304 Z M172.455672,18.188 L175.263672,18.188 C175.591674,18.188 175.875671,18.1500004 176.115672,18.074 C176.355673,17.9979996 176.555671,17.8940007 176.715672,17.762 C176.875673,17.6299993 176.995672,17.4760009 177.075672,17.3 C177.155672,17.1239991 177.195672,16.936001 177.195672,16.736 C177.195672,15.6639946 176.551678,15.128 175.263672,15.128 L172.455672,15.128 L172.455672,18.188 Z M171.639672,14.432 L175.263672,14.432 C175.623674,14.432 175.96967,14.4659997 176.301672,14.534 C176.633674,14.6020003 176.925671,14.7179992 177.177672,14.882 C177.429673,15.0460008 177.631671,15.2619987 177.783672,15.53 C177.935673,15.7980013 178.011672,16.131998 178.011672,16.532 C178.011672,16.7560011 177.975672,16.9739989 177.903672,17.186 C177.831672,17.3980011 177.729673,17.5899991 177.597672,17.762 C177.465671,17.9340009 177.309673,18.0799994 177.129672,18.2 C176.949671,18.3200006 176.747673,18.4039998 176.523672,18.452 L176.523672,18.476 C177.075675,18.5480004 177.51567,18.7739981 177.843672,19.154 C178.171674,19.5340019 178.335672,20.0039972 178.335672,20.564 C178.335672,20.7000007 178.323672,20.8539991 178.299672,21.026 C178.275672,21.1980009 178.227672,21.3739991 178.155672,21.554 C178.083672,21.7340009 177.979673,21.9119991 177.843672,22.088 C177.707671,22.2640009 177.525673,22.4179993 177.297672,22.55 C177.069671,22.6820007 176.789674,22.7899996 176.457672,22.874 C176.12567,22.9580004 175.727674,23 175.263672,23 L171.639672,23 L171.639672,14.432 Z M172.455672,22.304 L175.263672,22.304 C175.567673,22.304 175.855671,22.2780003 176.127672,22.226 C176.399673,22.1739997 176.639671,22.0800007 176.847672,21.944 C177.055673,21.8079993 177.219671,21.6260011 177.339672,21.398 C177.459673,21.1699989 177.519672,20.8840017 177.519672,20.54 C177.519672,19.9879972 177.325674,19.5740014 176.937672,19.298 C176.54967,19.0219986 175.991676,18.884 175.263672,18.884 L172.455672,18.884 L172.455672,22.304 Z M180.027672,20.18 L179.211672,20.18 C179.187672,20.7080026 179.257671,21.1599981 179.421672,21.536 C179.585673,21.9120019 179.81967,22.2199988 180.123672,22.46 C180.427673,22.7000012 180.79567,22.8779994 181.227672,22.994 C181.659674,23.1100006 182.127669,23.168 182.631672,23.168 C183.135674,23.168 183.56767,23.1220005 183.927672,23.03 C184.287674,22.9379995 184.589671,22.8180007 184.833672,22.67 C185.077673,22.5219993 185.269671,22.3560009 185.409672,22.172 C185.549673,21.9879991 185.657672,21.8060009 185.733672,21.626 C185.809672,21.4459991 185.857672,21.2760008 185.877672,21.116 C185.897672,20.9559992 185.907672,20.8280005 185.907672,20.732 C185.907672,20.3799982 185.849673,20.0800012 185.733672,19.832 C185.617671,19.5839988 185.457673,19.3740009 185.253672,19.202 C185.049671,19.0299991 184.813673,18.8860006 184.545672,18.77 C184.277671,18.6539994 183.991673,18.5560004 183.687672,18.476 L181.599672,17.96 C181.423671,17.9199998 181.257673,17.8680003 181.101672,17.804 C180.945671,17.7399997 180.807673,17.6560005 180.687672,17.552 C180.567671,17.4479995 180.473672,17.3220007 180.405672,17.174 C180.337672,17.0259993 180.303672,16.852001 180.303672,16.652 C180.303672,16.3319984 180.363671,16.0640011 180.483672,15.848 C180.603673,15.6319989 180.761671,15.4580007 180.957672,15.326 C181.153673,15.1939993 181.381671,15.0980003 181.641672,15.038 C181.901673,14.9779997 182.171671,14.948 182.451672,14.948 C182.755673,14.948 183.045671,14.9899996 183.321672,15.074 C183.597673,15.1580004 183.841671,15.2819992 184.053672,15.446 C184.265673,15.6100008 184.437671,15.8139988 184.569672,16.058 C184.701673,16.3020012 184.775672,16.5879984 184.791672,16.916 L185.607672,16.916 C185.607672,16.4759978 185.521673,16.0900017 185.349672,15.758 C185.177671,15.4259983 184.947673,15.1480011 184.659672,14.924 C184.371671,14.6999989 184.035674,14.5320006 183.651672,14.42 C183.26767,14.3079994 182.863674,14.252 182.439672,14.252 C181.839669,14.252 181.347674,14.3379991 180.963672,14.51 C180.57967,14.6820009 180.277673,14.8919988 180.057672,15.14 C179.837671,15.3880012 179.687672,15.6519986 179.607672,15.932 C179.527672,16.2120014 179.487672,16.455999 179.487672,16.664 C179.487672,17.0000017 179.541671,17.2839988 179.649672,17.516 C179.757672,17.7480012 179.899671,17.9439992 180.075672,18.104 C180.251673,18.2640008 180.457671,18.3919995 180.693672,18.488 C180.929673,18.5840005 181.171671,18.6639997 181.419672,18.728 L183.327672,19.196 C183.527673,19.2440002 183.731671,19.3059996 183.939672,19.382 C184.147673,19.4580004 184.337671,19.5559994 184.509672,19.676 C184.681673,19.7960006 184.821671,19.9439991 184.929672,20.12 C185.037672,20.2960009 185.091672,20.5039988 185.091672,20.744 C185.091672,21.0560016 185.015673,21.3219989 184.863672,21.542 C184.711671,21.7620011 184.521673,21.9419993 184.293672,22.082 C184.065671,22.2220007 183.819673,22.3239997 183.555672,22.388 C183.291671,22.4520003 183.047673,22.484 182.823672,22.484 C182.43167,22.484 182.063674,22.4460004 181.719672,22.37 C181.37567,22.2939996 181.077673,22.1680009 180.825672,21.992 C180.573671,21.8159991 180.375673,21.5800015 180.231672,21.284 C180.087671,20.9879985 180.019672,20.6200022 180.027672,20.18 Z" id="by-DBS"></path>
                </g>
            </g>
        </g>
    </g>
</svg>